<?xml version="1.0" encoding="UTF-8" standalone="no"?>
<!-- Created with Inkscape (http://www.inkscape.org/) -->

<svg
   width="20"
   height="20"
   viewBox="0 0 5.2916669 5.2916668"
   version="1.1"
   id="svg1500"
   sodipodi:docname="childRecording_v2.svg"
   inkscape:version="1.1.2 (0a00cf5339, 2022-02-04)"
   xmlns:inkscape="http://www.inkscape.org/namespaces/inkscape"
   xmlns:sodipodi="http://sodipodi.sourceforge.net/DTD/sodipodi-0.dtd"
   xmlns="http://www.w3.org/2000/svg"
   xmlns:svg="http://www.w3.org/2000/svg"
   xmlns:rdf="http://www.w3.org/1999/02/22-rdf-syntax-ns#"
   xmlns:cc="http://creativecommons.org/ns#"
   xmlns:dc="http://purl.org/dc/elements/1.1/">
  <sodipodi:namedview
     id="namedview7"
     pagecolor="#505050"
     bordercolor="#ffffff"
     borderopacity="1"
     inkscape:pageshadow="0"
     inkscape:pageopacity="0"
     inkscape:pagecheckerboard="1"
     showgrid="false"
     inkscape:zoom="23.9"
     inkscape:cx="10"
     inkscape:cy="10"
     inkscape:window-width="1920"
     inkscape:window-height="1026"
     inkscape:window-x="0"
     inkscape:window-y="0"
     inkscape:window-maximized="1"
     inkscape:current-layer="svg1500" />
  <defs
     id="defs1494" />
  <metadata
     id="metadata1497">
    <rdf:RDF>
      <cc:Work
         rdf:about="">
        <dc:format>image/svg+xml</dc:format>
        <dc:type
           rdf:resource="http://purl.org/dc/dcmitype/StillImage" />
      </cc:Work>
    </rdf:RDF>
  </metadata>
  <g
     id="layer1"
     transform="translate(-48.702232,-29.95982)">
    <path
       fill="#ffffff"
       d="m 51.347774,31.330167 a 0.14177821,0.14177821 0 0 0 -0.09867,0.0414 l -1.134226,1.133658 a 0.14177821,0.14177821 0 0 0 0,0.200474 l 1.134226,1.134227 a 0.14177821,0.14177821 0 0 0 0.199907,0 l 1.131957,-1.127988 a 0.14177821,0.14177821 0 0 0 5.67e-4,-0.200474 l -1.131957,-1.139897 a 0.14177821,0.14177821 0 0 0 -0.10208,-0.0414 z m 0.0012,0.34282 0.93205,0.938004 -0.931766,0.928364 -0.933751,-0.933751 z"
       id="path823"
       style="stroke-width:0.283556" />
  </g>
  <path
     fill="#ffffff"
     d="m 2.6456156,1.6672072 a 0.10873178,0.10873178 0 0 0 -0.076112,0.031967 l -0.8694194,0.869854 a 0.10873178,0.10873178 0 0 0 0,0.1537467 l 0.8694193,0.8698543 a 0.10873178,0.10873178 0 0 0 0.1537467,0 L 3.5913646,2.727342 a 0.10873178,0.10873178 0 0 0 4.35e-4,-0.1537467 L 2.7236851,1.6993917 a 0.10873178,0.10873178 0 0 0 -0.078287,-0.032184 z"
     id="path3049"
     style="stroke-width:0.217463" />
  <path
     fill="#e10000"
     d="m 2.6456936,2.0178073 a 0.06977782,0.06977782 0 0 0 -0.048844,0.020515 L 2.0389059,2.5965442 a 0.06977782,0.06977782 0 0 0 0,0.098666 l 0.5579434,0.5582225 a 0.06977782,0.06977782 0 0 0 0.098666,0 L 3.2526211,2.698141 A 0.06977782,0.06977782 0 0 0 3.2529002,2.599475 L 2.6957942,2.0384615 a 0.06977782,0.06977782 0 0 0 -0.05024,-0.020654 z"
     id="path3058"
     style="fill:#e10000;fill-opacity:1;stroke-width:0.139555" />
</svg>
