<?xml version="1.0" encoding="UTF-8" standalone="no"?>
<!-- Created with Inkscape (http://www.inkscape.org/) -->

<svg
   width="20"
   height="20"
   viewBox="0 0 5.2916669 5.2916668"
   version="1.1"
   id="svg1500"
   sodipodi:docname="unlocked_v2.svg"
   inkscape:version="1.1.2 (0a00cf5339, 2022-02-04)"
   xmlns:inkscape="http://www.inkscape.org/namespaces/inkscape"
   xmlns:sodipodi="http://sodipodi.sourceforge.net/DTD/sodipodi-0.dtd"
   xmlns="http://www.w3.org/2000/svg"
   xmlns:svg="http://www.w3.org/2000/svg"
   xmlns:rdf="http://www.w3.org/1999/02/22-rdf-syntax-ns#"
   xmlns:cc="http://creativecommons.org/ns#"
   xmlns:dc="http://purl.org/dc/elements/1.1/">
  <sodipodi:namedview
     id="namedview3158"
     pagecolor="#505050"
     bordercolor="#ffffff"
     borderopacity="1"
     inkscape:pageshadow="0"
     inkscape:pageopacity="0"
     inkscape:pagecheckerboard="1"
     showgrid="false"
     inkscape:zoom="32.291899"
     inkscape:cx="8.701873"
     inkscape:cy="9.6618661"
     inkscape:window-width="1920"
     inkscape:window-height="1026"
     inkscape:window-x="0"
     inkscape:window-y="0"
     inkscape:window-maximized="1"
     inkscape:current-layer="svg1500" />
  <defs
     id="defs1494" />
  <metadata
     id="metadata1497">
    <rdf:RDF>
      <cc:Work
         rdf:about="">
        <dc:format>image/svg+xml</dc:format>
        <dc:type
           rdf:resource="http://purl.org/dc/dcmitype/StillImage" />
      </cc:Work>
    </rdf:RDF>
  </metadata>
  <path
     fill="#ffffff"
     d="M 1.4877739,2.4803902 H 1.3223371 c -0.091368,0 -0.1654367,0.074068 -0.1654368,0.1654366 v 1.6543675 c 0,0.091368 0.074069,0.1654367 0.1654368,0.1654367 h 2.6469881 c 0.091368,0 0.1654367,-0.074069 0.1654367,-0.1654367 V 2.6458268 c -1e-7,-0.091368 -0.074069,-0.1654366 -0.1654367,-0.1654366 -1.5428142,0 -0.3020321,0 -2.4815513,0 z m 0,0.3308734 h 2.3161145 v 1.323494 H 1.4877739 Z M 2.4803944,3.142137 V 3.803884 H 2.811268 V 3.142137 Z"
     id="path3217"
     style="stroke-width:0.330873"
     sodipodi:nodetypes="cscsccsccccccccccccc" />
  <path
     d="M 2.645833,0.826052 C 2.0068677,0.82750792 1.4892464,1.3451297 1.487791,1.984095 V 2.480399 H 1.322356 c -0.091367,-2e-7 -0.1654346,0.074067 -0.165435,0.165434 2.4993935,0 1.2749299,0 2.977824,0 -4e-7,-0.091366 -0.074067,-0.1654331 -0.165433,-0.165434 H 3.803876 V 1.984095 c 0,-0.637585 -0.520458,-1.158043 -1.158043,-1.158043 z m 0,0.330869 c 0.458916,0 0.827175,0.368258 0.827175,0.827174 V 2.480399 H 1.81866 V 1.984095 c 0,-0.458916 0.368258,-0.827174 0.827173,-0.827174 z"
     fill="#ffffff"
     id="path835"
     style="fill:#ffffff;fill-opacity:1;stroke-width:0.330869"
     sodipodi:nodetypes="cccsccccscssccss" />
</svg>
